<svg version="1.1" id="Layer_1" xmlns="http://www.w3.org/2000/svg" xmlns:xlink="http://www.w3.org/1999/xlink" x="0px" y="0px"
	 width="100%" viewBox="0 0 940 292" enable-background="new 0 0 940 292" xml:space="preserve">
<path fill="#FDFDFD" opacity="1.000000" stroke="none" 
	d="
M615.000000,293.000000 
	C410.000000,293.000000 205.500000,293.000000 1.000000,293.000000 
	C1.000000,195.666672 1.000000,98.333336 1.000000,1.000000 
	C314.333344,1.000000 627.666687,1.000000 941.000000,1.000000 
	C941.000000,98.333336 941.000000,195.666672 941.000000,293.000000 
	C832.500000,293.000000 724.000000,293.000000 615.000000,293.000000 
M914.348145,219.466003 
	C914.746216,217.636642 915.144226,215.807281 915.941650,213.387192 
	C915.941956,212.918640 915.942200,212.450073 916.370911,211.603333 
	C916.450256,211.062820 916.529663,210.522308 916.938660,209.310349 
	C917.312195,207.880371 917.685730,206.450378 918.612427,204.555832 
	C919.253296,201.696671 919.894165,198.837509 920.878174,195.307312 
	C921.217957,193.860748 921.557678,192.414200 922.428894,190.506973 
	C922.815308,188.664719 923.201721,186.822464 924.008057,184.316833 
	C924.687073,181.549622 925.366089,178.782410 926.598328,175.562332 
	C926.726196,172.822830 926.854065,170.083328 926.089050,167.053970 
	C921.595581,167.040573 917.088379,166.827469 912.617004,167.135162 
	C911.272156,167.227722 909.183228,168.533035 908.861023,169.682434 
	C902.417664,192.672272 896.183411,215.720718 889.186462,238.589951 
	C888.804871,237.710342 888.285828,236.864273 888.061829,235.946198 
	C882.758240,214.208374 877.524170,192.453415 872.121094,170.740463 
	C871.770508,169.331711 870.226990,167.230743 869.131165,167.162109 
	C863.384460,166.802307 857.603149,166.993881 852.048340,166.993881 
	C851.737122,167.882095 851.477478,168.227402 851.543518,168.491104 
	C857.345276,191.651520 863.127258,214.817307 869.138184,237.923538 
	C869.420776,239.009933 871.707581,240.137070 873.145325,240.260178 
	C878.416321,240.711365 883.722961,240.746002 888.786804,241.774902 
	C885.801819,252.586075 882.816833,263.397247 879.743103,274.529785 
	C886.193176,274.529785 892.083374,274.529785 898.650635,274.591949 
	C899.307007,272.388702 899.963379,270.185486 900.940674,267.307159 
	C901.284119,265.868317 901.627625,264.429504 902.514526,262.541412 
	C902.893066,260.688782 903.271545,258.836151 904.034912,256.319397 
	C904.639221,253.864059 905.243530,251.408722 906.369629,248.482666 
	C906.744995,246.647217 907.120361,244.811752 907.922546,242.313126 
	C908.613831,239.541626 909.305054,236.770142 910.528870,233.539597 
	C910.901306,231.687424 911.273682,229.835251 912.032715,227.325851 
	C912.638611,224.868637 913.244446,222.411407 914.348145,219.466003 
M86.102776,145.388351 
	C105.123535,174.700394 124.189125,203.983566 143.104095,233.363724 
	C145.286285,236.753265 147.540817,238.294312 151.824387,238.261810 
	C181.653366,238.035461 211.484879,238.144760 241.315567,238.131531 
	C242.888290,238.130829 244.460938,237.994431 246.823441,237.884445 
	C245.386124,235.586700 244.393951,233.914886 243.319931,232.297409 
	C235.956070,221.207260 228.568558,210.132843 221.200745,199.045334 
	C187.592896,148.470337 153.961563,97.910866 120.450256,47.271976 
	C118.388672,44.156723 116.274231,42.924873 112.454987,42.949173 
	C83.458725,43.133652 54.460758,43.047615 25.463335,43.063335 
	C23.888218,43.064190 22.313187,43.221149 19.877960,43.351475 
	C42.131893,77.618080 63.934807,111.190193 86.102776,145.388351 
M307.682526,169.180069 
	C329.708740,127.712715 351.734985,86.245361 374.118256,44.105839 
	C371.596069,43.976238 370.005066,43.823963 368.414001,43.823193 
	C339.434418,43.809116 310.453979,43.920677 281.476227,43.689922 
	C277.439972,43.657780 275.636810,45.104469 273.971039,48.435078 
	C256.209015,83.949432 238.368271,119.424843 220.373474,154.821640 
	C218.939392,157.642548 219.069550,159.445328 220.755539,161.971603 
	C231.002975,177.326172 241.079269,192.794952 251.215164,208.223984 
	C257.649384,218.018280 264.087891,227.809769 270.961121,238.266891 
	C283.316528,214.933441 295.274475,192.350601 307.682526,169.180069 
M546.962524,71.505783 
	C549.656860,60.606548 552.351135,49.707310 555.129822,38.466736 
	C548.233093,38.466736 541.815002,38.466736 535.354797,38.466736 
	C529.946045,63.999077 524.583130,89.314735 519.220215,114.630386 
	C518.893799,114.575371 518.567444,114.520355 518.241028,114.465340 
	C512.494751,89.056328 506.748535,63.647308 501.025452,38.340736 
	C493.659668,38.340736 487.010773,38.340736 479.970276,38.340736 
	C474.166748,63.921757 468.369537,89.474892 462.572327,115.028030 
	C460.465485,109.380989 459.211670,103.689438 458.002197,97.988480 
	C454.024353,79.238228 450.096619,60.477158 446.020569,41.748322 
	C445.740112,40.459724 444.450165,38.441818 443.542450,38.393250 
	C437.789490,38.085419 432.011932,38.236916 425.700348,38.236916 
	C426.564087,41.756569 427.251221,44.608139 427.964050,47.453289 
	C434.603577,73.954765 441.298340,100.442650 447.815826,126.974083 
	C448.510468,129.801804 449.623077,130.771149 452.488678,130.686722 
	C458.981934,130.495407 465.493256,130.794159 471.975952,130.469101 
	C473.330048,130.401184 475.458679,128.705551 475.763763,127.413689 
	C479.073059,113.399254 482.081543,99.313889 485.189392,85.251701 
	C486.702393,78.405800 488.251801,71.567932 489.784668,64.726418 
	C490.241364,64.716568 490.698029,64.706726 491.154724,64.696884 
	C495.987854,86.518333 500.820984,108.339783 505.755890,130.620667 
	C513.151672,130.620667 520.457092,130.430878 527.745300,130.702850 
	C531.248535,130.833588 532.495605,129.759399 533.332336,126.258263 
	C537.640076,108.232452 542.331116,90.298218 546.962524,71.505783 
M433.725250,205.499863 
	C433.725250,216.953049 433.725250,228.406250 433.725250,239.996796 
	C440.223572,239.996796 446.259583,239.996796 452.896301,239.996796 
	C452.896301,214.550003 452.896301,189.452103 452.896301,164.354218 
	C454.431030,166.264160 455.226593,168.216385 455.844208,170.223358 
	C462.190948,190.846222 468.481720,211.486343 474.848175,232.103088 
	C477.412994,240.408798 477.489624,240.139389 486.116852,240.456680 
	C490.123962,240.604050 491.469177,239.050659 492.518341,235.477295 
	C498.225311,216.040115 504.179565,196.675323 510.093353,177.299240 
	C511.665314,172.148849 513.394470,167.046448 515.051453,161.921997 
	C515.362244,161.977448 515.673096,162.032898 515.983887,162.088348 
	C515.983887,188.100189 515.983887,214.112015 515.983887,239.950836 
	C522.330688,239.950836 528.224792,239.950836 533.890259,239.950836 
	C533.890259,209.135086 533.890259,178.719727 533.890259,147.910690 
	C524.731567,147.910690 515.922913,148.120667 507.132629,147.810654 
	C503.452393,147.680862 502.285095,149.246185 501.427124,152.393478 
	C498.022400,164.883377 494.435242,177.323990 490.853821,189.765045 
	C488.841858,196.754135 486.708893,203.708389 484.630402,210.678314 
	C481.314728,203.314636 479.206879,196.050110 477.077240,188.791977 
	C473.436218,176.382874 469.827667,163.963776 466.067139,151.590942 
	C465.654419,150.233078 464.363464,148.122681 463.434235,148.098297 
	C453.674408,147.842178 443.905304,147.940018 433.725220,147.940018 
	C433.725220,167.227341 433.725220,185.863602 433.725250,205.499863 
M702.604309,217.928635 
	C703.180786,211.832458 704.406921,205.714539 704.203613,199.644485 
	C703.725098,185.356567 697.362549,173.958725 683.892334,168.534012 
	C671.319641,163.470749 659.053467,165.018539 648.976929,175.339020 
	C648.623474,175.701111 647.961487,175.761993 646.880249,176.181946 
	C646.880249,164.869232 646.880249,154.119980 646.880249,143.313980 
	C640.571289,143.313980 634.693787,143.313980 628.612061,143.313980 
	C628.612061,175.735031 628.612061,207.801376 628.612061,240.114410 
	C634.788452,240.114410 640.722046,240.114410 646.846680,240.114410 
	C647.022278,237.299225 647.190735,234.597626 647.322876,232.478561 
	C652.089844,235.101379 656.413391,238.448746 661.306335,239.998291 
	C678.918091,245.575821 694.698364,237.091568 702.604309,217.928635 
M217.209747,99.740234 
	C223.290359,89.243149 229.246246,78.670425 235.535889,68.300125 
	C237.188141,65.575897 237.144470,63.891655 234.638611,62.076397 
	C231.996689,60.162582 229.438110,58.133743 226.843109,56.155159 
	C227.216400,55.494736 227.589691,54.834316 227.962982,54.173893 
	C237.031631,54.350697 247.399796,56.859104 248.839981,43.339485 
	C214.967331,43.339485 181.121994,43.339485 147.195755,43.339485 
	C150.571304,53.575397 157.492172,57.335667 168.470352,55.581413 
	C166.817505,58.152874 164.561371,59.387280 163.103149,61.247238 
	C162.188904,62.413353 161.639816,65.092041 162.344650,66.119583 
	C175.584808,85.421829 189.037323,104.578400 202.835876,124.324135 
	C207.687714,116.073761 212.295135,108.239021 217.209747,99.740234 
M623.527039,80.117714 
	C616.632080,59.330833 596.886108,52.936314 578.458008,57.424458 
	C559.224976,62.108673 549.306213,80.385689 553.080872,102.566353 
	C556.279846,121.364426 572.262329,133.148849 592.664978,131.753006 
	C607.331177,130.749619 622.127563,118.885643 622.375549,107.711098 
	C621.221497,107.711098 620.069336,107.711197 618.917175,107.711090 
	C614.584961,107.710678 610.241638,107.536217 605.926880,107.810287 
	C604.539612,107.898407 602.873779,108.864685 601.939331,109.949493 
	C596.545593,116.211174 588.324829,118.144241 580.812256,114.682472 
	C574.733276,111.881287 571.345337,105.901306 572.566650,99.727715 
	C574.150208,99.727715 575.794861,99.727554 577.439575,99.727745 
	C591.769287,99.729393 606.099792,99.650688 620.428101,99.791809 
	C623.825439,99.825272 625.484253,98.803345 625.128174,95.263916 
	C624.646912,90.479279 624.204712,85.690712 623.527039,80.117714 
M660.366455,115.708549 
	C651.911377,112.809158 648.493225,108.482880 648.114502,99.724136 
	C656.909973,99.724136 665.692810,99.724136 674.475647,99.724136 
	C683.233093,99.724136 691.990601,99.724136 700.620972,99.724136 
	C704.052307,77.098175 692.273132,59.499218 672.283752,56.510380 
	C650.592896,53.267136 632.061584,65.910477 629.115845,85.962524 
	C625.531799,110.359520 638.186218,128.847153 660.890259,131.606003 
	C680.415222,133.978577 696.749695,121.947006 698.975281,107.703072 
	C693.280884,107.703072 687.644775,107.581787 682.021912,107.800652 
	C680.830994,107.847015 679.396545,108.894951 678.572021,109.892746 
	C673.963257,115.469902 668.174377,117.300156 660.366455,115.708549 
M544.504700,195.199936 
	C542.296570,209.256516 544.357483,222.220581 555.291443,232.298355 
	C566.521667,242.649231 586.137878,244.581772 599.676270,237.141449 
	C615.813660,228.272751 620.687195,213.675934 618.714539,197.622070 
	C616.534058,179.877258 602.227783,166.986862 585.291382,166.172211 
	C563.897949,165.143188 549.267395,175.272751 544.504700,195.199936 
M814.782166,199.505005 
	C815.028992,207.817642 814.955017,216.156097 815.622009,224.434891 
	C816.175476,231.305130 820.044189,236.803879 826.741699,238.360138 
	C834.153198,240.082336 841.937378,240.200775 849.574463,241.019287 
	C849.574463,234.674942 849.574463,229.749710 849.574463,224.353195 
	C846.157288,224.353195 843.022095,224.325607 839.887573,224.360016 
	C835.733032,224.405594 833.818420,222.385635 833.851929,218.234268 
	C833.916565,210.239487 833.869934,202.243835 833.869568,194.248535 
	C833.869385,190.493576 833.869507,186.738617 833.869507,182.593292 
	C839.589600,182.593292 844.523560,182.593292 849.598083,182.593292 
	C849.598083,177.280777 849.598083,172.378601 849.598083,166.895233 
	C844.277771,166.895233 839.221558,166.895233 833.582397,166.895233 
	C833.582397,158.818558 833.582397,151.311981 833.582397,143.086807 
	C829.393250,146.246445 826.125000,149.116043 822.476074,151.368881 
	C816.996277,154.752075 813.287903,158.813370 814.635193,165.792664 
	C814.678711,166.018265 814.301880,166.325027 813.994019,166.782669 
	C811.555359,166.935013 808.983582,167.095673 806.398926,167.257141 
	C806.398926,172.630707 806.398926,177.525238 806.398926,182.587296 
	C809.305786,182.775604 811.870239,182.941742 814.782227,183.130402 
	C814.782227,188.566437 814.782227,193.536972 814.782166,199.505005 
M764.999146,160.500153 
	C764.999146,153.415710 764.999146,146.331253 764.999146,137.918671 
	C759.769348,141.880707 755.622498,145.338135 751.150146,148.304977 
	C747.894958,150.464386 746.727295,152.957504 746.755005,156.903473 
	C746.937866,183.021942 746.849670,209.142273 746.849792,235.262009 
	C746.849792,236.869232 746.849792,238.476471 746.849792,240.046021 
	C753.152893,240.046021 758.886597,240.046021 764.999146,240.046021 
	C764.999146,213.667221 764.999146,187.583649 764.999146,160.500153 
M793.312866,166.982635 
	C788.860474,166.982635 784.408081,166.982635 779.635010,166.982635 
	C779.635010,191.595795 779.635010,215.751831 779.635010,240.115189 
	C785.787964,240.115189 791.700989,240.115189 797.887390,240.115189 
	C797.887390,216.601410 797.844055,193.344193 797.941833,170.087555 
	C797.954102,167.161377 796.547485,166.761093 793.312866,166.982635 
M713.891235,184.501266 
	C713.891235,203.069168 713.891235,221.637070 713.891235,240.070831 
	C720.299072,240.070831 726.063538,240.070831 731.846436,240.070831 
	C731.846436,215.647400 731.846436,191.503693 731.846436,167.310211 
	C725.697205,167.310211 719.972656,167.310211 713.891235,167.310211 
	C713.891235,172.909698 713.891235,178.205795 713.891235,184.501266 
M785.384766,158.195602 
	C786.707153,158.270981 788.033508,158.452713 789.351135,158.402664 
	C794.120056,158.221588 797.639587,155.981445 799.317749,151.498016 
	C800.901062,147.268326 800.204102,143.176743 796.866028,140.019745 
	C793.415161,136.755997 789.386414,135.356125 784.584229,137.259445 
	C780.097900,139.037582 777.424438,142.378769 777.093262,146.938156 
	C776.704102,152.295395 779.642578,156.017120 785.384766,158.195602 
M714.082764,140.767410 
	C713.360535,142.604126 712.304932,144.384171 711.981140,146.288635 
	C711.146545,151.196442 713.675720,155.456146 718.290344,157.533691 
	C722.714233,159.525360 729.053284,158.271393 732.019226,154.817902 
	C735.430481,150.845871 735.714294,145.780792 732.765686,141.495773 
	C728.569763,135.398254 721.439026,134.890121 714.082764,140.767410 
z"/>
<path fill="#020202" opacity="1.000000" stroke="none" 
	d="
M85.920242,145.075333 
	C63.934807,111.190193 42.131893,77.618080 19.877960,43.351475 
	C22.313187,43.221149 23.888218,43.064190 25.463335,43.063335 
	C54.460758,43.047615 83.458725,43.133652 112.454987,42.949173 
	C116.274231,42.924873 118.388672,44.156723 120.450256,47.271976 
	C153.961563,97.910866 187.592896,148.470337 221.200745,199.045334 
	C228.568558,210.132843 235.956070,221.207260 243.319931,232.297409 
	C244.393951,233.914886 245.386124,235.586700 246.823441,237.884445 
	C244.460938,237.994431 242.888290,238.130829 241.315567,238.131531 
	C211.484879,238.144760 181.653366,238.035461 151.824387,238.261810 
	C147.540817,238.294312 145.286285,236.753265 143.104095,233.363724 
	C124.189125,203.983566 105.123535,174.700394 85.920242,145.075333 
z"/>
<path fill="#020202" opacity="1.000000" stroke="none" 
	d="
M307.457458,169.473907 
	C295.274475,192.350601 283.316528,214.933441 270.961121,238.266891 
	C264.087891,227.809769 257.649384,218.018280 251.215164,208.223984 
	C241.079269,192.794952 231.002975,177.326172 220.755539,161.971603 
	C219.069550,159.445328 218.939392,157.642548 220.373474,154.821640 
	C238.368271,119.424843 256.209015,83.949432 273.971039,48.435078 
	C275.636810,45.104469 277.439972,43.657780 281.476227,43.689922 
	C310.453979,43.920677 339.434418,43.809116 368.414001,43.823193 
	C370.005066,43.823963 371.596069,43.976238 374.118256,44.105839 
	C351.734985,86.245361 329.708740,127.712715 307.457458,169.473907 
z"/>
<path fill="#070707" opacity="1.000000" stroke="none" 
	d="
M546.925415,71.918900 
	C542.331116,90.298218 537.640076,108.232452 533.332336,126.258263 
	C532.495605,129.759399 531.248535,130.833588 527.745300,130.702850 
	C520.457092,130.430878 513.151672,130.620667 505.755890,130.620667 
	C500.820984,108.339783 495.987854,86.518333 491.154724,64.696884 
	C490.698029,64.706726 490.241364,64.716568 489.784668,64.726418 
	C488.251801,71.567932 486.702393,78.405800 485.189392,85.251701 
	C482.081543,99.313889 479.073059,113.399254 475.763763,127.413689 
	C475.458679,128.705551 473.330048,130.401184 471.975952,130.469101 
	C465.493256,130.794159 458.981934,130.495407 452.488678,130.686722 
	C449.623077,130.771149 448.510468,129.801804 447.815826,126.974083 
	C441.298340,100.442650 434.603577,73.954765 427.964050,47.453289 
	C427.251221,44.608139 426.564087,41.756569 425.700348,38.236916 
	C432.011932,38.236916 437.789490,38.085419 443.542450,38.393250 
	C444.450165,38.441818 445.740112,40.459724 446.020569,41.748322 
	C450.096619,60.477158 454.024353,79.238228 458.002197,97.988480 
	C459.211670,103.689438 460.465485,109.380989 462.572327,115.028030 
	C468.369537,89.474892 474.166748,63.921757 479.970276,38.340736 
	C487.010773,38.340736 493.659668,38.340736 501.025452,38.340736 
	C506.748535,63.647308 512.494751,89.056328 518.241028,114.465340 
	C518.567444,114.520355 518.893799,114.575371 519.220215,114.630386 
	C524.583130,89.314735 529.946045,63.999077 535.354797,38.466736 
	C541.815002,38.466736 548.233093,38.466736 555.129822,38.466736 
	C552.351135,49.707310 549.656860,60.606548 546.925415,71.918900 
z"/>
<path fill="#050505" opacity="1.000000" stroke="none" 
	d="
M433.725220,204.999847 
	C433.725220,185.863602 433.725220,167.227341 433.725220,147.940018 
	C443.905304,147.940018 453.674408,147.842178 463.434235,148.098297 
	C464.363464,148.122681 465.654419,150.233078 466.067139,151.590942 
	C469.827667,163.963776 473.436218,176.382874 477.077240,188.791977 
	C479.206879,196.050110 481.314728,203.314636 484.630402,210.678314 
	C486.708893,203.708389 488.841858,196.754135 490.853821,189.765045 
	C494.435242,177.323990 498.022400,164.883377 501.427124,152.393478 
	C502.285095,149.246185 503.452393,147.680862 507.132629,147.810654 
	C515.922913,148.120667 524.731567,147.910690 533.890259,147.910690 
	C533.890259,178.719727 533.890259,209.135086 533.890259,239.950836 
	C528.224792,239.950836 522.330688,239.950836 515.983887,239.950836 
	C515.983887,214.112015 515.983887,188.100189 515.983887,162.088348 
	C515.673096,162.032898 515.362244,161.977448 515.051453,161.921997 
	C513.394470,167.046448 511.665314,172.148849 510.093353,177.299240 
	C504.179565,196.675323 498.225311,216.040115 492.518341,235.477295 
	C491.469177,239.050659 490.123962,240.604050 486.116852,240.456680 
	C477.489624,240.139389 477.412994,240.408798 474.848175,232.103088 
	C468.481720,211.486343 462.190948,190.846222 455.844208,170.223358 
	C455.226593,168.216385 454.431030,166.264160 452.896301,164.354218 
	C452.896301,189.452103 452.896301,214.550003 452.896301,239.996796 
	C446.259583,239.996796 440.223572,239.996796 433.725250,239.996796 
	C433.725250,228.406250 433.725250,216.953049 433.725220,204.999847 
z"/>
<path fill="#080808" opacity="1.000000" stroke="none" 
	d="
M702.412415,218.274109 
	C694.698364,237.091568 678.918091,245.575821 661.306335,239.998291 
	C656.413391,238.448746 652.089844,235.101379 647.322876,232.478561 
	C647.190735,234.597626 647.022278,237.299225 646.846680,240.114410 
	C640.722046,240.114410 634.788452,240.114410 628.612061,240.114410 
	C628.612061,207.801376 628.612061,175.735031 628.612061,143.313980 
	C634.693787,143.313980 640.571289,143.313980 646.880249,143.313980 
	C646.880249,154.119980 646.880249,164.869232 646.880249,176.181946 
	C647.961487,175.761993 648.623474,175.701111 648.976929,175.339020 
	C659.053467,165.018539 671.319641,163.470749 683.892334,168.534012 
	C697.362549,173.958725 703.725098,185.356567 704.203613,199.644485 
	C704.406921,205.714539 703.180786,211.832458 702.412415,218.274109 
M657.966858,184.133911 
	C647.038696,189.894363 645.342041,202.760040 648.688477,212.799896 
	C651.731995,221.930801 661.859436,227.307098 670.517639,224.809601 
	C682.524353,221.346222 688.383728,209.360565 684.570129,196.064590 
	C681.419495,185.079971 671.280823,180.285736 657.966858,184.133911 
z"/>
<path fill="#040404" opacity="1.000000" stroke="none" 
	d="
M217.056152,100.072258 
	C212.295135,108.239021 207.687714,116.073761 202.835876,124.324135 
	C189.037323,104.578400 175.584808,85.421829 162.344650,66.119583 
	C161.639816,65.092041 162.188904,62.413353 163.103149,61.247238 
	C164.561371,59.387280 166.817505,58.152874 168.470352,55.581413 
	C157.492172,57.335667 150.571304,53.575397 147.195755,43.339485 
	C181.121994,43.339485 214.967331,43.339485 248.839981,43.339485 
	C247.399796,56.859104 237.031631,54.350697 227.962982,54.173893 
	C227.589691,54.834316 227.216400,55.494736 226.843109,56.155159 
	C229.438110,58.133743 231.996689,60.162582 234.638611,62.076397 
	C237.144470,63.891655 237.188141,65.575897 235.535889,68.300125 
	C229.246246,78.670425 223.290359,89.243149 217.056152,100.072258 
z"/>
<path fill="#090909" opacity="1.000000" stroke="none" 
	d="
M623.636414,80.510773 
	C624.204712,85.690712 624.646912,90.479279 625.128174,95.263916 
	C625.484253,98.803345 623.825439,99.825272 620.428101,99.791809 
	C606.099792,99.650688 591.769287,99.729393 577.439575,99.727745 
	C575.794861,99.727554 574.150208,99.727715 572.566650,99.727715 
	C571.345337,105.901306 574.733276,111.881287 580.812256,114.682472 
	C588.324829,118.144241 596.545593,116.211174 601.939331,109.949493 
	C602.873779,108.864685 604.539612,107.898407 605.926880,107.810287 
	C610.241638,107.536217 614.584961,107.710678 618.917175,107.711090 
	C620.069336,107.711197 621.221497,107.711098 622.375549,107.711098 
	C622.127563,118.885643 607.331177,130.749619 592.664978,131.753006 
	C572.262329,133.148849 556.279846,121.364426 553.080872,102.566353 
	C549.306213,80.385689 559.224976,62.108673 578.458008,57.424458 
	C596.886108,52.936314 616.632080,59.330833 623.636414,80.510773 
M591.509399,87.033684 
	C596.248474,87.033684 600.987549,87.033684 605.789551,87.033684 
	C604.553589,75.775154 595.752502,69.741241 584.448486,71.977196 
	C575.109009,73.824562 568.962097,83.682014 572.076111,99.233719 
	C574.999146,88.836624 581.133667,85.077423 591.509399,87.033684 
z"/>
<path fill="#090909" opacity="1.000000" stroke="none" 
	d="
M660.786377,115.760544 
	C668.174377,117.300156 673.963257,115.469902 678.572021,109.892746 
	C679.396545,108.894951 680.830994,107.847015 682.021912,107.800652 
	C687.644775,107.581787 693.280884,107.703072 698.975281,107.703072 
	C696.749695,121.947006 680.415222,133.978577 660.890259,131.606003 
	C638.186218,128.847153 625.531799,110.359520 629.115845,85.962524 
	C632.061584,65.910477 650.592896,53.267136 672.283752,56.510380 
	C692.273132,59.499218 704.052307,77.098175 700.620972,99.724136 
	C691.990601,99.724136 683.233093,99.724136 674.475647,99.724136 
	C665.692810,99.724136 656.909973,99.724136 648.114502,99.724136 
	C648.493225,108.482880 651.911377,112.809158 660.786377,115.760544 
M680.254333,79.512779 
	C674.974915,70.840767 663.900818,70.286232 657.762634,72.993820 
	C649.387024,76.688347 645.925232,85.944984 648.511658,97.638969 
	C649.822937,95.563652 651.263611,93.916870 651.993591,91.999504 
	C653.633179,87.693321 656.592285,86.702515 660.944946,86.935669 
	C667.867554,87.306473 674.824585,87.034676 682.487244,87.034676 
	C681.743530,84.237419 681.202271,82.201553 680.254333,79.512779 
z"/>
<path fill="#060606" opacity="1.000000" stroke="none" 
	d="
M544.556763,194.769440 
	C549.267395,175.272751 563.897949,165.143188 585.291382,166.172211 
	C602.227783,166.986862 616.534058,179.877258 618.714539,197.622070 
	C620.687195,213.675934 615.813660,228.272751 599.676270,237.141449 
	C586.137878,244.581772 566.521667,242.649231 555.291443,232.298355 
	C544.357483,222.220581 542.296570,209.256516 544.556763,194.769440 
M565.474915,191.222855 
	C562.131775,197.063553 562.242249,203.533997 563.205994,209.713409 
	C565.419922,223.908173 580.782837,230.164261 592.112427,221.673889 
	C598.729919,216.714783 600.205811,209.536911 599.868164,201.658539 
	C599.492737,192.897369 594.593201,185.510208 587.211304,183.172409 
	C578.740845,180.489883 571.528870,182.983673 565.474915,191.222855 
z"/>
<path fill="#070707" opacity="1.000000" stroke="none" 
	d="
M814.782227,199.006256 
	C814.782227,193.536972 814.782227,188.566437 814.782227,183.130402 
	C811.870239,182.941742 809.305786,182.775604 806.398926,182.587296 
	C806.398926,177.525238 806.398926,172.630707 806.398926,167.257141 
	C808.983582,167.095673 811.555359,166.935013 813.994019,166.782669 
	C814.301880,166.325027 814.678711,166.018265 814.635193,165.792664 
	C813.287903,158.813370 816.996277,154.752075 822.476074,151.368881 
	C826.125000,149.116043 829.393250,146.246445 833.582397,143.086807 
	C833.582397,151.311981 833.582397,158.818558 833.582397,166.895233 
	C839.221558,166.895233 844.277771,166.895233 849.598083,166.895233 
	C849.598083,172.378601 849.598083,177.280777 849.598083,182.593292 
	C844.523560,182.593292 839.589600,182.593292 833.869507,182.593292 
	C833.869507,186.738617 833.869385,190.493576 833.869568,194.248535 
	C833.869934,202.243835 833.916565,210.239487 833.851929,218.234268 
	C833.818420,222.385635 835.733032,224.405594 839.887573,224.360016 
	C843.022095,224.325607 846.157288,224.353195 849.574463,224.353195 
	C849.574463,229.749710 849.574463,234.674942 849.574463,241.019287 
	C841.937378,240.200775 834.153198,240.082336 826.741699,238.360138 
	C820.044189,236.803879 816.175476,231.305130 815.622009,224.434891 
	C814.955017,216.156097 815.028992,207.817642 814.782227,199.006256 
z"/>
<path fill="#000000" opacity="1.000000" stroke="none" 
	d="
M909.996338,233.998642 
	C909.305054,236.770142 908.613831,239.541626 907.398071,242.733917 
	C906.531616,245.087601 906.189697,247.020493 905.847778,248.953384 
	C905.243530,251.408722 904.639221,253.864059 903.519409,256.728760 
	C902.659546,259.088959 902.315308,261.039825 901.971069,262.990662 
	C901.627625,264.429504 901.284119,265.868317 900.457886,267.727905 
	C899.307983,270.275726 898.640747,272.402740 897.973572,274.529785 
	C892.083374,274.529785 886.193176,274.529785 879.743103,274.529785 
	C882.816833,263.397247 885.801819,252.586075 889.135742,241.242462 
	C889.625366,240.059128 889.766113,239.408218 889.906921,238.757324 
	C896.183411,215.720718 902.417664,192.672272 908.861023,169.682434 
	C909.183228,168.533035 911.272156,167.227722 912.617004,167.135162 
	C917.088379,166.827469 921.595581,167.040573 926.514648,167.564468 
	C926.641846,170.721710 926.343445,173.368454 926.045044,176.015198 
	C925.366089,178.782410 924.687073,181.549622 923.480835,184.730270 
	C922.601562,187.085022 922.249512,189.026337 921.897461,190.967651 
	C921.557678,192.414200 921.217957,193.860748 920.384277,195.738556 
	C919.280029,199.120010 918.669617,202.070206 918.059265,205.020401 
	C917.685730,206.450378 917.312195,207.880371 916.509888,209.688568 
	C916.034912,210.705032 915.988708,211.343277 915.942505,211.981522 
	C915.942200,212.450073 915.941956,212.918640 915.429626,213.769058 
	C914.561829,216.085342 914.206055,218.019760 913.850342,219.954193 
	C913.244446,222.411407 912.638611,224.868637 911.512695,227.729645 
	C910.660583,230.088516 910.328491,232.043579 909.996338,233.998642 
z"/>
<path fill="#030303" opacity="1.000000" stroke="none" 
	d="
M764.999146,161.000107 
	C764.999146,187.583649 764.999146,213.667221 764.999146,240.046021 
	C758.886597,240.046021 753.152893,240.046021 746.849792,240.046021 
	C746.849792,238.476471 746.849792,236.869232 746.849792,235.262009 
	C746.849670,209.142273 746.937866,183.021942 746.755005,156.903473 
	C746.727295,152.957504 747.894958,150.464386 751.150146,148.304977 
	C755.622498,145.338135 759.769348,141.880707 764.999146,137.918671 
	C764.999146,146.331253 764.999146,153.415710 764.999146,161.000107 
z"/>
<path fill="#090909" opacity="1.000000" stroke="none" 
	d="
M889.546692,238.673645 
	C889.766113,239.408218 889.625366,240.059128 889.250366,240.823746 
	C883.722961,240.746002 878.416321,240.711365 873.145325,240.260178 
	C871.707581,240.137070 869.420776,239.009933 869.138184,237.923538 
	C863.127258,214.817307 857.345276,191.651520 851.543518,168.491104 
	C851.477478,168.227402 851.737122,167.882095 852.048340,166.993881 
	C857.603149,166.993881 863.384460,166.802307 869.131165,167.162109 
	C870.226990,167.230743 871.770508,169.331711 872.121094,170.740463 
	C877.524170,192.453415 882.758240,214.208374 888.061829,235.946198 
	C888.285828,236.864273 888.804871,237.710342 889.546692,238.673645 
z"/>
<path fill="#090909" opacity="1.000000" stroke="none" 
	d="
M793.788025,166.982452 
	C796.547485,166.761093 797.954102,167.161377 797.941833,170.087555 
	C797.844055,193.344193 797.887390,216.601410 797.887390,240.115189 
	C791.700989,240.115189 785.787964,240.115189 779.635010,240.115189 
	C779.635010,215.751831 779.635010,191.595795 779.635010,166.982635 
	C784.408081,166.982635 788.860474,166.982635 793.788025,166.982452 
z"/>
<path fill="#020202" opacity="1.000000" stroke="none" 
	d="
M713.891235,184.001587 
	C713.891235,178.205795 713.891235,172.909698 713.891235,167.310211 
	C719.972656,167.310211 725.697205,167.310211 731.846436,167.310211 
	C731.846436,191.503693 731.846436,215.647400 731.846436,240.070831 
	C726.063538,240.070831 720.299072,240.070831 713.891235,240.070831 
	C713.891235,221.637070 713.891235,203.069168 713.891235,184.001587 
z"/>
<path fill="#0B0B0B" opacity="1.000000" stroke="none" 
	d="
M785.011230,158.114822 
	C779.642578,156.017120 776.704102,152.295395 777.093262,146.938156 
	C777.424438,142.378769 780.097900,139.037582 784.584229,137.259445 
	C789.386414,135.356125 793.415161,136.755997 796.866028,140.019745 
	C800.204102,143.176743 800.901062,147.268326 799.317749,151.498016 
	C797.639587,155.981445 794.120056,158.221588 789.351135,158.402664 
	C788.033508,158.452713 786.707153,158.270981 785.011230,158.114822 
z"/>
<path fill="#0B0B0B" opacity="1.000000" stroke="none" 
	d="
M714.335205,140.483856 
	C721.439026,134.890121 728.569763,135.398254 732.765686,141.495773 
	C735.714294,145.780792 735.430481,150.845871 732.019226,154.817902 
	C729.053284,158.271393 722.714233,159.525360 718.290344,157.533691 
	C713.675720,155.456146 711.146545,151.196442 711.981140,146.288635 
	C712.304932,144.384171 713.360535,142.604126 714.335205,140.483856 
z"/>
<path fill="#090909" opacity="1.000000" stroke="none" 
	d="
M918.335815,204.788116 
	C918.669617,202.070206 919.280029,199.120010 920.212708,196.074097 
	C919.894165,198.837509 919.253296,201.696671 918.335815,204.788116 
z"/>
<path fill="#090909" opacity="1.000000" stroke="none" 
	d="
M926.321655,175.788757 
	C926.343445,173.368454 926.641846,170.721710 926.961060,167.709396 
	C926.854065,170.083328 926.726196,172.822830 926.321655,175.788757 
z"/>
<path fill="#090909" opacity="1.000000" stroke="none" 
	d="
M910.262573,233.769119 
	C910.328491,232.043579 910.660583,230.088516 911.319458,228.058258 
	C911.273682,229.835251 910.901306,231.687424 910.262573,233.769119 
z"/>
<path fill="#090909" opacity="1.000000" stroke="none" 
	d="
M914.099243,219.710098 
	C914.206055,218.019760 914.561829,216.085342 915.229980,214.064423 
	C915.144226,215.807281 914.746216,217.636642 914.099243,219.710098 
z"/>
<path fill="#090909" opacity="1.000000" stroke="none" 
	d="
M906.108765,248.718018 
	C906.189697,247.020493 906.531616,245.087601 907.184631,243.065491 
	C907.120361,244.811752 906.744995,246.647217 906.108765,248.718018 
z"/>
<path fill="#090909" opacity="1.000000" stroke="none" 
	d="
M902.242798,262.766052 
	C902.315308,261.039825 902.659546,259.088959 903.326965,257.060822 
	C903.271545,258.836151 902.893066,260.688782 902.242798,262.766052 
z"/>
<path fill="#090909" opacity="1.000000" stroke="none" 
	d="
M898.312134,274.560852 
	C898.640747,272.402740 899.307983,270.275726 900.297485,268.065460 
	C899.963379,270.185486 899.307007,272.388702 898.312134,274.560852 
z"/>
<path fill="#090909" opacity="1.000000" stroke="none" 
	d="
M922.163208,190.737305 
	C922.249512,189.026337 922.601562,187.085022 923.270874,185.061966 
	C923.201721,186.822464 922.815308,188.664719 922.163208,190.737305 
z"/>
<path fill="#090909" opacity="1.000000" stroke="none" 
	d="
M916.156738,211.792419 
	C915.988708,211.343277 916.034912,210.705032 916.345093,210.024292 
	C916.529663,210.522308 916.450256,211.062820 916.156738,211.792419 
z"/>
<path fill="#F9F9F9" opacity="1.000000" stroke="none" 
	d="
M658.317261,183.975052 
	C671.280823,180.285736 681.419495,185.079971 684.570129,196.064590 
	C688.383728,209.360565 682.524353,221.346222 670.517639,224.809601 
	C661.859436,227.307098 651.731995,221.930801 648.688477,212.799896 
	C645.342041,202.760040 647.038696,189.894363 658.317261,183.975052 
z"/>
<path fill="#F3F3F3" opacity="1.000000" stroke="none" 
	d="
M591.014587,87.033569 
	C581.133667,85.077423 574.999146,88.836624 572.076111,99.233719 
	C568.962097,83.682014 575.109009,73.824562 584.448486,71.977196 
	C595.752502,69.741241 604.553589,75.775154 605.789551,87.033684 
	C600.987549,87.033684 596.248474,87.033684 591.014587,87.033569 
z"/>
<path fill="#F3F3F3" opacity="1.000000" stroke="none" 
	d="
M680.457642,79.839233 
	C681.202271,82.201553 681.743530,84.237419 682.487244,87.034676 
	C674.824585,87.034676 667.867554,87.306473 660.944946,86.935669 
	C656.592285,86.702515 653.633179,87.693321 651.993591,91.999504 
	C651.263611,93.916870 649.822937,95.563652 648.511658,97.638969 
	C645.925232,85.944984 649.387024,76.688347 657.762634,72.993820 
	C663.900818,70.286232 674.974915,70.840767 680.457642,79.839233 
z"/>
<path fill="#F9F9F9" opacity="1.000000" stroke="none" 
	d="
M565.657715,190.892471 
	C571.528870,182.983673 578.740845,180.489883 587.211304,183.172409 
	C594.593201,185.510208 599.492737,192.897369 599.868164,201.658539 
	C600.205811,209.536911 598.729919,216.714783 592.112427,221.673889 
	C580.782837,230.164261 565.419922,223.908173 563.205994,209.713409 
	C562.242249,203.533997 562.131775,197.063553 565.657715,190.892471 
z"/>
</svg>